<svg width="215" height="18" viewBox="0 0 215 18" fill="none" xmlns="http://www.w3.org/2000/svg">
<path d="M15.7093 1.49L10.2533 12.072V17H5.91931V12.072L0.463313 1.49H5.39131L8.11931 7.474L10.8473 1.49H15.7093ZM26.2291 17.154C24.7771 17.154 23.4424 16.8167 22.2251 16.142C21.0078 15.4527 20.0398 14.5067 19.3211 13.304C18.6171 12.0867 18.2651 10.7153 18.2651 9.19C18.2651 7.66467 18.6171 6.30067 19.3211 5.098C20.0398 3.88067 21.0078 2.93467 22.2251 2.26C23.4424 1.58533 24.7771 1.248 26.2291 1.248C27.6958 1.248 29.0304 1.58533 30.2331 2.26C31.4504 2.93467 32.4111 3.88067 33.1151 5.098C33.8191 6.30067 34.1711 7.66467 34.1711 9.19C34.1711 10.7153 33.8191 12.0867 33.1151 13.304C32.4111 14.5067 31.4504 15.4527 30.2331 16.142C29.0158 16.8167 27.6811 17.154 26.2291 17.154ZM26.2291 13.15C27.3291 13.15 28.1944 12.7907 28.8251 12.072C29.4704 11.3533 29.7931 10.3927 29.7931 9.19C29.7931 7.958 29.4704 6.99 28.8251 6.286C28.1944 5.56733 27.3291 5.208 26.2291 5.208C25.1144 5.208 24.2418 5.56733 23.6111 6.286C22.9804 6.99 22.6651 7.958 22.6651 9.19C22.6651 10.4073 22.9804 11.3753 23.6111 12.094C24.2418 12.798 25.1144 13.15 26.2291 13.15ZM42.0935 1.49V10.488C42.0935 11.324 42.2842 11.9693 42.6655 12.424C43.0615 12.8787 43.6555 13.106 44.4475 13.106C45.2395 13.106 45.8335 12.8787 46.2295 12.424C46.6402 11.9547 46.8455 11.3093 46.8455 10.488V1.49H51.1575V10.488C51.1575 11.9107 50.8568 13.128 50.2555 14.14C49.6542 15.1373 48.8328 15.8927 47.7915 16.406C46.7648 16.9047 45.6208 17.154 44.3595 17.154C43.0982 17.154 41.9688 16.9047 40.9715 16.406C39.9888 15.8927 39.2115 15.1373 38.6395 14.14C38.0822 13.1427 37.8035 11.9253 37.8035 10.488V1.49H42.0935ZM63.1456 17L60.0656 11.28H59.6036V17H55.2916V1.49H62.0896C63.3363 1.49 64.3923 1.71 65.2576 2.15C66.1229 2.57533 66.7756 3.16933 67.2156 3.932C67.6556 4.68 67.8756 5.52333 67.8756 6.462C67.8756 7.518 67.5823 8.44933 66.9956 9.256C66.4236 10.048 65.5803 10.6127 64.4656 10.95L67.9636 17H63.1456ZM59.6036 8.332H61.7376C62.3243 8.332 62.7643 8.19267 63.0576 7.914C63.3509 7.63533 63.4976 7.232 63.4976 6.704C63.4976 6.20533 63.3436 5.81667 63.0356 5.538C62.7423 5.24467 62.3096 5.098 61.7376 5.098H59.6036V8.332ZM74.5225 6.682C74.9479 6.09533 75.5272 5.61867 76.2605 5.252C77.0085 4.87067 77.8372 4.68 78.7465 4.68C79.8172 4.68 80.7852 4.93667 81.6505 5.45C82.5159 5.96333 83.1979 6.69667 83.6965 7.65C84.1952 8.58867 84.4445 9.66667 84.4445 10.884C84.4445 12.1013 84.1952 13.194 83.6965 14.162C83.1979 15.1153 82.5085 15.8633 81.6285 16.406C80.7632 16.934 79.8025 17.198 78.7465 17.198C77.8079 17.198 76.9719 17.0147 76.2385 16.648C75.5199 16.2813 74.9479 15.812 74.5225 15.24V17H72.0145V0.72H74.5225V6.682ZM81.8925 10.884C81.8925 10.048 81.7165 9.32933 81.3645 8.728C81.0272 8.112 80.5725 7.65 80.0005 7.342C79.4432 7.01933 78.8419 6.858 78.1965 6.858C77.5659 6.858 76.9645 7.01933 76.3925 7.342C75.8352 7.66467 75.3805 8.134 75.0285 8.75C74.6912 9.366 74.5225 10.092 74.5225 10.928C74.5225 11.764 74.6912 12.4973 75.0285 13.128C75.3805 13.744 75.8352 14.2133 76.3925 14.536C76.9645 14.8587 77.5659 15.02 78.1965 15.02C78.8419 15.02 79.4432 14.8587 80.0005 14.536C80.5725 14.1987 81.0272 13.7147 81.3645 13.084C81.7165 12.4533 81.8925 11.72 81.8925 10.884ZM93.7667 6.924H91.5227V17H88.9927V6.924H87.5627V4.878H88.9927V4.02C88.9927 2.62667 89.3594 1.61467 90.0927 0.983999C90.8407 0.338666 92.0067 0.0159997 93.5907 0.0159997V2.106C92.828 2.106 92.2927 2.25267 91.9847 2.546C91.6767 2.82467 91.5227 3.316 91.5227 4.02V4.878H93.7667V6.924ZM99.0254 3.272C98.5707 3.272 98.1894 3.118 97.8814 2.81C97.5734 2.502 97.4194 2.12067 97.4194 1.666C97.4194 1.21133 97.5734 0.829999 97.8814 0.522C98.1894 0.213999 98.5707 0.0599991 99.0254 0.0599991C99.4654 0.0599991 99.8394 0.213999 100.147 0.522C100.455 0.829999 100.609 1.21133 100.609 1.666C100.609 2.12067 100.455 2.502 100.147 2.81C99.8394 3.118 99.4654 3.272 99.0254 3.272ZM100.257 4.878V17H97.7494V4.878H100.257ZM111.426 4.68C112.379 4.68 113.23 4.878 113.978 5.274C114.741 5.67 115.335 6.25667 115.76 7.034C116.185 7.81133 116.398 8.75 116.398 9.85V17H113.912V10.224C113.912 9.13867 113.641 8.31 113.098 7.738C112.555 7.15133 111.815 6.858 110.876 6.858C109.937 6.858 109.189 7.15133 108.632 7.738C108.089 8.31 107.818 9.13867 107.818 10.224V17H105.31V4.878H107.818V6.264C108.229 5.76533 108.749 5.37667 109.38 5.098C110.025 4.81933 110.707 4.68 111.426 4.68ZM120.521 10.884C120.521 9.66667 120.771 8.58867 121.269 7.65C121.783 6.71133 122.472 5.98533 123.337 5.472C124.217 4.944 125.185 4.68 126.241 4.68C127.195 4.68 128.023 4.87067 128.727 5.252C129.446 5.61867 130.018 6.08067 130.443 6.638V4.878H132.973V17H130.443V15.196C130.018 15.768 129.439 16.2447 128.705 16.626C127.972 17.0073 127.136 17.198 126.197 17.198C125.156 17.198 124.203 16.934 123.337 16.406C122.472 15.8633 121.783 15.1153 121.269 14.162C120.771 13.194 120.521 12.1013 120.521 10.884ZM130.443 10.928C130.443 10.092 130.267 9.366 129.915 8.75C129.578 8.134 129.131 7.66467 128.573 7.342C128.016 7.01933 127.415 6.858 126.769 6.858C126.124 6.858 125.523 7.01933 124.965 7.342C124.408 7.65 123.953 8.112 123.601 8.728C123.264 9.32933 123.095 10.048 123.095 10.884C123.095 11.72 123.264 12.4533 123.601 13.084C123.953 13.7147 124.408 14.1987 124.965 14.536C125.537 14.8587 126.139 15.02 126.769 15.02C127.415 15.02 128.016 14.8587 128.573 14.536C129.131 14.2133 129.578 13.744 129.915 13.128C130.267 12.4973 130.443 11.764 130.443 10.928ZM144.143 4.68C145.097 4.68 145.947 4.878 146.695 5.274C147.458 5.67 148.052 6.25667 148.477 7.034C148.903 7.81133 149.115 8.75 149.115 9.85V17H146.629V10.224C146.629 9.13867 146.358 8.31 145.815 7.738C145.273 7.15133 144.532 6.858 143.593 6.858C142.655 6.858 141.907 7.15133 141.349 7.738C140.807 8.31 140.535 9.13867 140.535 10.224V17H138.027V4.878H140.535V6.264C140.946 5.76533 141.467 5.37667 142.097 5.098C142.743 4.81933 143.425 4.68 144.143 4.68ZM153.239 10.928C153.239 9.68133 153.488 8.58867 153.987 7.65C154.5 6.69667 155.204 5.96333 156.099 5.45C156.993 4.93667 158.02 4.68 159.179 4.68C160.645 4.68 161.855 5.032 162.809 5.736C163.777 6.42533 164.429 7.41533 164.767 8.706H162.061C161.841 8.10467 161.489 7.63533 161.005 7.298C160.521 6.96067 159.912 6.792 159.179 6.792C158.152 6.792 157.331 7.15867 156.715 7.892C156.113 8.61067 155.813 9.62267 155.813 10.928C155.813 12.2333 156.113 13.2527 156.715 13.986C157.331 14.7193 158.152 15.086 159.179 15.086C160.631 15.086 161.591 14.448 162.061 13.172H164.767C164.415 14.404 163.755 15.3867 162.787 16.12C161.819 16.8387 160.616 17.198 159.179 17.198C158.02 17.198 156.993 16.9413 156.099 16.428C155.204 15.9 154.5 15.1667 153.987 14.228C153.488 13.2747 153.239 12.1747 153.239 10.928ZM180.136 10.642C180.136 11.0967 180.107 11.5073 180.048 11.874H170.786C170.859 12.842 171.219 13.6193 171.864 14.206C172.509 14.7927 173.301 15.086 174.24 15.086C175.589 15.086 176.543 14.5213 177.1 13.392H179.806C179.439 14.5067 178.772 15.4233 177.804 16.142C176.851 16.846 175.663 17.198 174.24 17.198C173.081 17.198 172.04 16.9413 171.116 16.428C170.207 15.9 169.488 15.1667 168.96 14.228C168.447 13.2747 168.19 12.1747 168.19 10.928C168.19 9.68133 168.439 8.58867 168.938 7.65C169.451 6.69667 170.163 5.96333 171.072 5.45C171.996 4.93667 173.052 4.68 174.24 4.68C175.384 4.68 176.403 4.92933 177.298 5.428C178.193 5.92667 178.889 6.63067 179.388 7.54C179.887 8.43467 180.136 9.46867 180.136 10.642ZM177.518 9.85C177.503 8.926 177.173 8.18533 176.528 7.628C175.883 7.07067 175.083 6.792 174.13 6.792C173.265 6.792 172.524 7.07067 171.908 7.628C171.292 8.17067 170.925 8.91133 170.808 9.85H177.518ZM185.376 17.154C184.921 17.154 184.54 17 184.232 16.692C183.924 16.384 183.77 16.0027 183.77 15.548C183.77 15.0933 183.924 14.712 184.232 14.404C184.54 14.096 184.921 13.942 185.376 13.942C185.816 13.942 186.19 14.096 186.498 14.404C186.806 14.712 186.96 15.0933 186.96 15.548C186.96 16.0027 186.806 16.384 186.498 16.692C186.19 17 185.816 17.154 185.376 17.154ZM195.325 1.49V17H191.013V1.49H195.325ZM206.976 17.154C205.524 17.154 204.19 16.8167 202.972 16.142C201.755 15.4527 200.787 14.5067 200.068 13.304C199.364 12.0867 199.012 10.7153 199.012 9.19C199.012 7.66467 199.364 6.30067 200.068 5.098C200.787 3.88067 201.755 2.93467 202.972 2.26C204.19 1.58533 205.524 1.248 206.976 1.248C208.443 1.248 209.778 1.58533 210.98 2.26C212.198 2.93467 213.158 3.88067 213.862 5.098C214.566 6.30067 214.918 7.66467 214.918 9.19C214.918 10.7153 214.566 12.0867 213.862 13.304C213.158 14.5067 212.198 15.4527 210.98 16.142C209.763 16.8167 208.428 17.154 206.976 17.154ZM206.976 13.15C208.076 13.15 208.942 12.7907 209.572 12.072C210.218 11.3533 210.54 10.3927 210.54 9.19C210.54 7.958 210.218 6.99 209.572 6.286C208.942 5.56733 208.076 5.208 206.976 5.208C205.862 5.208 204.989 5.56733 204.358 6.286C203.728 6.99 203.412 7.958 203.412 9.19C203.412 10.4073 203.728 11.3753 204.358 12.094C204.989 12.798 205.862 13.15 206.976 13.15Z" fill="white"/>
</svg>
