<svg width="361" height="32" viewBox="0 0 361 32" fill="none" xmlns="http://www.w3.org/2000/svg">
<path d="M28.3534 2.8L18.4334 22.04V31H10.5534V22.04L0.633434 2.8H9.59344L14.5534 13.68L19.5134 2.8H28.3534ZM47.4803 31.28C44.8403 31.28 42.4136 30.6667 40.2003 29.44C37.987 28.1867 36.227 26.4667 34.9203 24.28C33.6403 22.0667 33.0003 19.5733 33.0003 16.8C33.0003 14.0267 33.6403 11.5467 34.9203 9.36C36.227 7.14667 37.987 5.42667 40.2003 4.2C42.4136 2.97333 44.8403 2.36 47.4803 2.36C50.147 2.36 52.5736 2.97333 54.7603 4.2C56.9736 5.42667 58.7203 7.14667 60.0003 9.36C61.2803 11.5467 61.9203 14.0267 61.9203 16.8C61.9203 19.5733 61.2803 22.0667 60.0003 24.28C58.7203 26.4667 56.9736 28.1867 54.7603 29.44C52.547 30.6667 50.1203 31.28 47.4803 31.28ZM47.4803 24C49.4803 24 51.0536 23.3467 52.2003 22.04C53.3736 20.7333 53.9603 18.9867 53.9603 16.8C53.9603 14.56 53.3736 12.8 52.2003 11.52C51.0536 10.2133 49.4803 9.56 47.4803 9.56C45.4536 9.56 43.867 10.2133 42.7203 11.52C41.5736 12.8 41.0003 14.56 41.0003 16.8C41.0003 19.0133 41.5736 20.7733 42.7203 22.08C43.867 23.36 45.4536 24 47.4803 24ZM76.3247 2.8V19.16C76.3247 20.68 76.6714 21.8533 77.3647 22.68C78.0847 23.5067 79.1647 23.92 80.6047 23.92C82.0447 23.92 83.1247 23.5067 83.8447 22.68C84.5914 21.8267 84.9647 20.6533 84.9647 19.16V2.8H92.8047V19.16C92.8047 21.7467 92.258 23.96 91.1647 25.8C90.0714 27.6133 88.578 28.9867 86.6847 29.92C84.818 30.8267 82.738 31.28 80.4447 31.28C78.1514 31.28 76.098 30.8267 74.2847 29.92C72.498 28.9867 71.0847 27.6133 70.0447 25.8C69.0314 23.9867 68.5247 21.7733 68.5247 19.16V2.8H76.3247ZM114.601 31L109.001 20.6H108.161V31H100.321V2.8H112.681C114.948 2.8 116.868 3.2 118.441 4C120.015 4.77333 121.201 5.85333 122.001 7.24C122.801 8.6 123.201 10.1333 123.201 11.84C123.201 13.76 122.668 15.4533 121.601 16.92C120.561 18.36 119.028 19.3867 117.001 20L123.361 31H114.601ZM108.161 15.24H112.041C113.108 15.24 113.908 14.9867 114.441 14.48C114.975 13.9733 115.241 13.24 115.241 12.28C115.241 11.3733 114.961 10.6667 114.401 10.16C113.868 9.62667 113.081 9.36 112.041 9.36H108.161V15.24ZM139.967 12.68H135.887V31H131.287V12.68H128.687V8.96H131.287V7.4C131.287 4.86666 131.953 3.02666 133.287 1.88C134.647 0.706666 136.767 0.119999 139.647 0.119999V3.92C138.26 3.92 137.287 4.18667 136.727 4.72C136.167 5.22667 135.887 6.12 135.887 7.4V8.96H139.967V12.68ZM149.528 6.04C148.701 6.04 148.008 5.76 147.448 5.2C146.888 4.64 146.608 3.94667 146.608 3.12C146.608 2.29333 146.888 1.6 147.448 1.04C148.008 0.479999 148.701 0.199998 149.528 0.199998C150.328 0.199998 151.008 0.479999 151.568 1.04C152.128 1.6 152.408 2.29333 152.408 3.12C152.408 3.94667 152.128 4.64 151.568 5.2C151.008 5.76 150.328 6.04 149.528 6.04ZM151.768 8.96V31H147.208V8.96H151.768ZM172.075 8.6C173.808 8.6 175.355 8.96 176.715 9.68C178.101 10.4 179.181 11.4667 179.955 12.88C180.728 14.2933 181.115 16 181.115 18V31H176.595V18.68C176.595 16.7067 176.101 15.2 175.115 14.16C174.128 13.0933 172.781 12.56 171.075 12.56C169.368 12.56 168.008 13.0933 166.995 14.16C166.008 15.2 165.515 16.7067 165.515 18.68V31H160.955V8.96H165.515V11.48C166.261 10.5733 167.208 9.86667 168.355 9.36C169.528 8.85333 170.768 8.6 172.075 8.6ZM188.611 19.88C188.611 17.6667 189.065 15.7067 189.971 14C190.905 12.2933 192.158 10.9733 193.731 10.04C195.331 9.08 197.091 8.6 199.011 8.6C200.745 8.6 202.251 8.94667 203.531 9.64C204.838 10.3067 205.878 11.1467 206.651 12.16V8.96H211.251V31H206.651V27.72C205.878 28.76 204.825 29.6267 203.491 30.32C202.158 31.0133 200.638 31.36 198.931 31.36C197.038 31.36 195.305 30.88 193.731 29.92C192.158 28.9333 190.905 27.5733 189.971 25.84C189.065 24.08 188.611 22.0933 188.611 19.88ZM206.651 19.96C206.651 18.44 206.331 17.12 205.691 16C205.078 14.88 204.265 14.0267 203.251 13.44C202.238 12.8533 201.145 12.56 199.971 12.56C198.798 12.56 197.705 12.8533 196.691 13.44C195.678 14 194.851 14.84 194.211 15.96C193.598 17.0533 193.291 18.36 193.291 19.88C193.291 21.4 193.598 22.7333 194.211 23.88C194.851 25.0267 195.678 25.9067 196.691 26.52C197.731 27.1067 198.825 27.4 199.971 27.4C201.145 27.4 202.238 27.1067 203.251 26.52C204.265 25.9333 205.078 25.08 205.691 23.96C206.331 22.8133 206.651 21.48 206.651 19.96ZM231.561 8.6C233.294 8.6 234.841 8.96 236.201 9.68C237.587 10.4 238.667 11.4667 239.441 12.88C240.214 14.2933 240.601 16 240.601 18V31H236.081V18.68C236.081 16.7067 235.587 15.2 234.601 14.16C233.614 13.0933 232.267 12.56 230.561 12.56C228.854 12.56 227.494 13.0933 226.481 14.16C225.494 15.2 225.001 16.7067 225.001 18.68V31H220.441V8.96H225.001V11.48C225.747 10.5733 226.694 9.86667 227.841 9.36C229.014 8.85333 230.254 8.6 231.561 8.6ZM248.097 19.96C248.097 17.6933 248.551 15.7067 249.457 14C250.391 12.2667 251.671 10.9333 253.297 10C254.924 9.06667 256.791 8.6 258.897 8.6C261.564 8.6 263.764 9.24 265.497 10.52C267.257 11.7733 268.444 13.5733 269.057 15.92H264.137C263.737 14.8267 263.097 13.9733 262.217 13.36C261.337 12.7467 260.231 12.44 258.897 12.44C257.031 12.44 255.537 13.1067 254.417 14.44C253.324 15.7467 252.777 17.5867 252.777 19.96C252.777 22.3333 253.324 24.1867 254.417 25.52C255.537 26.8533 257.031 27.52 258.897 27.52C261.537 27.52 263.284 26.36 264.137 24.04H269.057C268.417 26.28 267.217 28.0667 265.457 29.4C263.697 30.7067 261.511 31.36 258.897 31.36C256.791 31.36 254.924 30.8933 253.297 29.96C251.671 29 250.391 27.6667 249.457 25.96C248.551 24.2267 248.097 22.2267 248.097 19.96ZM297.002 19.44C297.002 20.2667 296.948 21.0133 296.842 21.68H280.002C280.135 23.44 280.788 24.8533 281.962 25.92C283.135 26.9867 284.575 27.52 286.282 27.52C288.735 27.52 290.468 26.4933 291.482 24.44H296.402C295.735 26.4667 294.522 28.1333 292.762 29.44C291.028 30.72 288.868 31.36 286.282 31.36C284.175 31.36 282.282 30.8933 280.602 29.96C278.948 29 277.642 27.6667 276.682 25.96C275.748 24.2267 275.282 22.2267 275.282 19.96C275.282 17.6933 275.735 15.7067 276.642 14C277.575 12.2667 278.868 10.9333 280.522 10C282.202 9.06667 284.122 8.6 286.282 8.6C288.362 8.6 290.215 9.05333 291.842 9.96C293.468 10.8667 294.735 12.1467 295.642 13.8C296.548 15.4267 297.002 17.3067 297.002 19.44ZM292.242 18C292.215 16.32 291.615 14.9733 290.442 13.96C289.268 12.9467 287.815 12.44 286.082 12.44C284.508 12.44 283.162 12.9467 282.042 13.96C280.922 14.9467 280.255 16.2933 280.042 18H292.242ZM306.529 31.28C305.702 31.28 305.009 31 304.449 30.44C303.889 29.88 303.609 29.1867 303.609 28.36C303.609 27.5333 303.889 26.84 304.449 26.28C305.009 25.72 305.702 25.44 306.529 25.44C307.329 25.44 308.009 25.72 308.569 26.28C309.129 26.84 309.409 27.5333 309.409 28.36C309.409 29.1867 309.129 29.88 308.569 30.44C308.009 31 307.329 31.28 306.529 31.28ZM324.617 2.8V31H316.777V2.8H324.617ZM345.802 31.28C343.162 31.28 340.736 30.6667 338.522 29.44C336.309 28.1867 334.549 26.4667 333.242 24.28C331.962 22.0667 331.322 19.5733 331.322 16.8C331.322 14.0267 331.962 11.5467 333.242 9.36C334.549 7.14667 336.309 5.42667 338.522 4.2C340.736 2.97333 343.162 2.36 345.802 2.36C348.469 2.36 350.896 2.97333 353.082 4.2C355.296 5.42667 357.042 7.14667 358.322 9.36C359.602 11.5467 360.242 14.0267 360.242 16.8C360.242 19.5733 359.602 22.0667 358.322 24.28C357.042 26.4667 355.296 28.1867 353.082 29.44C350.869 30.6667 348.442 31.28 345.802 31.28ZM345.802 24C347.802 24 349.376 23.3467 350.522 22.04C351.696 20.7333 352.282 18.9867 352.282 16.8C352.282 14.56 351.696 12.8 350.522 11.52C349.376 10.2133 347.802 9.56 345.802 9.56C343.776 9.56 342.189 10.2133 341.042 11.52C339.896 12.8 339.322 14.56 339.322 16.8C339.322 19.0133 339.896 20.7733 341.042 22.08C342.189 23.36 343.776 24 345.802 24Z" fill="#299D91"/>
</svg>
